<svg xmlns="http://www.w3.org/2000/svg" viewBox="0 0 150 15"><title>Campaign Monitor</title><path class="logo-color" d="M73.93,0c-0.6,0-1.06.13-1.06,0.69V1.23c0,0.56.46,0.7,1.06,0.7S75,1.79,75,1.23V0.69C75,0.13,74.52,0,73.93,0Z"></path><path class="logo-color" d="M74.36,3H73.51a0.51,0.51,0,0,0-.51.51v7.29a0.51,0.51,0,0,0,.51.51h0.84a0.51,0.51,0,0,0,.51-0.51V3.53A0.51,0.51,0,0,0,74.36,3Z"></path><path class="logo-color" d="M49.74,2.93A3.22,3.22,0,0,0,47,4.34a2.54,2.54,0,0,0-2.42-1.4,2.9,2.9,0,0,0-2.47,1.4V3.53A0.51,0.51,0,0,0,41.62,3H40.77a0.51,0.51,0,0,0-.51.51v7.29a0.51,0.51,0,0,0,.51.51h0.84a0.51,0.51,0,0,0,.51-0.51V6.65a1.78,1.78,0,0,1,1.73-2c1,0,1.64.71,1.64,2v4.21a0.51,0.51,0,0,0,.51.51h0.84a0.51,0.51,0,0,0,.51-0.51V6.65a1.75,1.75,0,0,1,1.73-2c1,0,1.64.7,1.64,2v4.2a0.51,0.51,0,0,0,.51.51h0.84a0.51,0.51,0,0,0,.51-0.51V6.05C52.58,4.06,51.5,2.93,49.74,2.93Z"></path><path class="logo-color" d="M128,0c-0.6,0-1.06.13-1.06,0.69V1.23c0,0.56.46,0.7,1.06,0.7S129,1.79,129,1.23V0.69C129,0.13,128.58,0,128,0Z"></path><path class="logo-color" d="M128.41,3h-0.84a0.51,0.51,0,0,0-.51.51v7.29a0.51,0.51,0,0,0,.51.51h0.84a0.51,0.51,0,0,0,.5-0.51V3.53A0.51,0.51,0,0,0,128.41,3Z"></path><path class="logo-color" d="M26.27,2.17a3.6,3.6,0,0,1,2.21.75,0.48,0.48,0,0,0,.64,0l0.65-.65a0.49,0.49,0,0,0,0-.73A5.45,5.45,0,0,0,26.27.27a5.58,5.58,0,0,0,0,11.16,5.45,5.45,0,0,0,3.45-1.22,0.49,0.49,0,0,0,0-.73l-0.65-.65a0.49,0.49,0,0,0-.34-0.14,0.48,0.48,0,0,0-.29.1,3.6,3.6,0,0,1-2.21.75A3.68,3.68,0,0,1,26.27,2.17Z"></path><path class="logo-color" d="M83.63,3H82.79a0.51,0.51,0,0,0-.51.51V4.34a3.14,3.14,0,0,0-2.76-1.4c-1.9,0-3.76,1.51-3.76,4.23v0c0,2.7,1.84,4.23,3.76,4.23a3.26,3.26,0,0,0,2.76-1.38l0,0v0.75a2.64,2.64,0,0,1-2.58,2.69,2.5,2.5,0,0,1-2.19-1.15,0.5,0.5,0,0,0-.69-0.17l-0.36.24a0.51,0.51,0,0,0-.17.7A4,4,0,0,0,79.8,15a4.14,4.14,0,0,0,4.34-4.24V3.53A0.51,0.51,0,0,0,83.63,3ZM82.11,7.2a2.42,2.42,0,0,1-2.27,2.61A2.32,2.32,0,0,1,77.65,7.2v0a2.34,2.34,0,0,1,2.19-2.61,2.41,2.41,0,0,1,2.27,2.61v0Z"></path><path class="logo-color" d="M122.88,2.94a2.92,2.92,0,0,0-2.53,1.4V3.53A0.51,0.51,0,0,0,119.84,3H119a0.51,0.51,0,0,0-.5.51v7.29a0.51,0.51,0,0,0,.5.51h0.84a0.53,0.53,0,0,0,.51-0.59V6.35a1.78,1.78,0,1,1,3.56,0v4.47a0.51,0.51,0,0,0,.5.51h0.84a0.51,0.51,0,0,0,.51-0.51V6.06C125.76,4.17,124.7,2.94,122.88,2.94Z"></path><path class="logo-color" d="M89.82,2.94a2.92,2.92,0,0,0-2.53,1.4V3.53A0.51,0.51,0,0,0,86.79,3H85.94a0.51,0.51,0,0,0-.5.51v7.29a0.51,0.51,0,0,0,.5.51h0.84a0.53,0.53,0,0,0,.51-0.59V6.35a1.78,1.78,0,1,1,3.56,0v4.47a0.51,0.51,0,0,0,.5.51H92.2a0.51,0.51,0,0,0,.51-0.51V6.06C92.7,4.17,91.64,2.94,89.82,2.94Z"></path><path class="logo-color" d="M149.79,3l-0.05,0-0.06,0a2.43,2.43,0,0,0-2.73,1.33V3.53A0.51,0.51,0,0,0,146.44,3h-0.84a0.51,0.51,0,0,0-.51.51v7.29a0.51,0.51,0,0,0,.51.51h0.84a0.51,0.51,0,0,0,.51-0.51V7.73c0-2.49,1.29-2.94,2-2.88l0.38,0h0.09a0.36,0.36,0,0,0,.35-0.29L150,3.42A0.36,0.36,0,0,0,149.79,3Z"></path><path class="logo-color" d="M113.26,2.94A4.21,4.21,0,0,0,109,7.17v0a4.31,4.31,0,0,0,8.61,0v0A4.21,4.21,0,0,0,113.26,2.94Zm2.42,4.25v0a2.43,2.43,0,1,1-4.85,0V7.16a2.43,2.43,0,1,1,4.85,0v0Z"></path><path class="logo-color" d="M139.82,2.94a4.21,4.21,0,0,0-4.31,4.23v0a4.31,4.31,0,0,0,8.61,0v0A4.21,4.21,0,0,0,139.82,2.94Zm2.42,4.25v0a2.43,2.43,0,1,1-4.85,0V7.16a2.43,2.43,0,1,1,4.85,0v0Z"></path><path class="logo-color" d="M107.49,0.39h-0.85a0.51,0.51,0,0,0-.4.21l-3.48,4.79L99.27,0.59a0.51,0.51,0,0,0-.4-0.21H98a0.51,0.51,0,0,0-.51.51v9.93a0.51,0.51,0,0,0,.51.51h0.84a0.51,0.51,0,0,0,.51-0.51V3.94l3.08,4h0l0,0h0A0.36,0.36,0,0,0,103,8h0l0,0h0l3.08-4v6.88a0.51,0.51,0,0,0,.51.51h0.84a0.51,0.51,0,0,0,.51-0.51V0.9A0.51,0.51,0,0,0,107.49.39Z"></path><polygon class="logo-color" points="102.75 8.08 102.75 8.08 102.75 8.08 102.75 8.08"></polygon><path class="logo-color" d="M58.49,2.94a3.14,3.14,0,0,0-2.76,1.4V3.53A0.51,0.51,0,0,0,55.23,3H54.38a0.51,0.51,0,0,0-.51.51V14.23a0.51,0.51,0,0,0,.51.51h0.84a0.51,0.51,0,0,0,.51-0.51V10a3.28,3.28,0,0,0,2.76,1.4c1.92,0,3.76-1.53,3.76-4.23v0C62.25,4.45,60.39,2.94,58.49,2.94ZM60.36,7.2a2.42,2.42,0,0,1-2.27,2.61A2.32,2.32,0,0,1,55.9,7.2v0a2.34,2.34,0,0,1,2.19-2.61,2.41,2.41,0,0,1,2.27,2.61v0Z"></path><path class="logo-color" d="M39,10h0a0.36,0.36,0,0,1-.36-0.36V3.53A0.51,0.51,0,0,0,38.18,3H37.34a0.51,0.51,0,0,0-.51.51V4.34a3.14,3.14,0,0,0-2.76-1.4c-1.9,0-3.76,1.51-3.76,4.23v0c0,2.7,1.84,4.23,3.76,4.23A3.06,3.06,0,0,0,36.86,10a1.78,1.78,0,0,0,1.71,1.3H39A0.36,0.36,0,0,0,39.4,11v-0.6A0.36,0.36,0,0,0,39,10ZM36.67,7.2a2.42,2.42,0,0,1-2.27,2.61A2.32,2.32,0,0,1,32.2,7.2v0a2.34,2.34,0,0,1,2.19-2.61,2.41,2.41,0,0,1,2.27,2.61v0Z"></path><path class="logo-color" d="M71.76,10h0a0.36,0.36,0,0,1-.36-0.36V3.53A0.51,0.51,0,0,0,70.9,3H70.06a0.51,0.51,0,0,0-.51.51V4.34a3.14,3.14,0,0,0-2.76-1.4C64.89,2.94,63,4.45,63,7.17v0c0,2.7,1.84,4.23,3.76,4.23A3.06,3.06,0,0,0,69.58,10a1.78,1.78,0,0,0,1.71,1.3h0.47A0.36,0.36,0,0,0,72.12,11v-0.6A0.36,0.36,0,0,0,71.76,10ZM69.39,7.2a2.42,2.42,0,0,1-2.27,2.61A2.32,2.32,0,0,1,64.92,7.2v0a2.34,2.34,0,0,1,2.19-2.61,2.41,2.41,0,0,1,2.27,2.61v0Z"></path><path class="logo-color" d="M134.6,3h-1.76V0.74h0a0.36,0.36,0,0,0-.06-0.2,0.36,0.36,0,0,0-.5-0.09h0l-0.88.62a1,1,0,0,0-.41.78V3h-0.6a0.51,0.51,0,0,0-.51.51V4.05a0.51,0.51,0,0,0,.51.51H131V9a2.08,2.08,0,0,0,2.33,2.39,4.79,4.79,0,0,0,1.47-.28,0.3,0.3,0,0,0,.19-0.37c0-.1-0.15-0.8-0.15-0.8a0.27,0.27,0,0,0-.34-0.27,3.87,3.87,0,0,1-.64.05,0.89,0.89,0,0,1-1-1V4.56h1.76a0.51,0.51,0,0,0,.51-0.51V3.53A0.51,0.51,0,0,0,134.6,3Z"></path><path class="logo-color" d="M14.89,1.46a0.58,0.58,0,0,0-.79-0.14L0.1,11a0.57,0.57,0,0,0,.47.24H14.43A0.57,0.57,0,0,0,15,10.66V1.78a0.56,0.56,0,0,0-.1-0.31"></path><path class="logo-color" d="M0.9,1.32a0.58,0.58,0,0,0-.79.14,0.56,0.56,0,0,0-.1.31v8.9L6.66,5.3Z"></path></svg>